<svg width="201" height="19" viewBox="0 0 201 19" fill="none" xmlns="http://www.w3.org/2000/svg">
<path d="M198.666 8.45009C198.196 8.50741 197.829 8.81697 197.691 9.24116C196.544 9.14944 195.591 8.28959 195.385 7.13164C195.637 8.08322 196.567 8.72525 197.576 8.59914C197.794 8.57621 197.989 8.50743 198.184 8.42717C198.494 8.32399 198.77 8.14054 198.988 7.91124H198.999C199.355 7.52144 199.561 6.99406 199.492 6.44375V6.42083C199.217 4.88455 198.093 3.6922 196.67 3.25654C196.727 3.08457 196.75 2.9126 196.727 2.71769C196.658 2.13299 196.165 1.69734 195.603 1.68587C195.063 4.09348 193.182 5.92784 190.612 6.30618L190.451 6.34057C187.422 6.70744 185.23 9.35581 185.379 12.3596C185.058 9.06919 187.422 6.11129 190.715 5.71002C192.103 5.43487 193.067 4.12789 192.883 2.70625C192.7 1.21583 191.346 0.149597 189.854 0.333034C189.762 0.333034 189.671 0.355973 189.59 0.378903C184.863 1.14704 181.547 5.52657 182.144 10.3189C182.752 15.2372 187.227 18.7225 192.138 18.1264C192.769 18.0461 193.365 17.9086 193.939 17.7137C193.939 17.7137 193.95 17.7137 193.962 17.7137C194.031 17.6907 194.1 17.6678 194.168 17.6449C194.191 17.6449 194.214 17.6219 194.249 17.6219C194.318 17.599 194.386 17.5646 194.455 17.5417C194.478 17.5417 194.501 17.5187 194.524 17.5187C194.593 17.4843 194.662 17.4614 194.731 17.427C194.742 17.427 194.765 17.4156 194.777 17.4041C195.499 17.0716 196.176 16.6474 196.785 16.1544C197.094 15.9022 197.393 15.6156 197.657 15.3175C197.186 14.9048 196.544 14.687 195.878 14.7787C195.213 14.8589 194.65 15.2143 194.295 15.7188C194.272 15.7417 194.249 15.7646 194.226 15.7875V15.7646C194.65 15.1226 194.845 14.343 194.742 13.529C194.513 11.6603 192.803 10.3303 190.933 10.5596C190.738 10.5825 190.554 10.6055 190.371 10.6628C190.715 10.4908 191.093 10.3762 191.484 10.3303C192.206 10.2386 192.906 10.3876 193.514 10.7087L193.549 10.7316C194.272 11.1329 195.132 11.3278 196.016 11.2131C196.75 11.1214 197.404 10.8462 197.955 10.4335C198.207 10.7201 198.586 10.8806 198.988 10.8348C199.642 10.7545 200.101 10.1698 200.02 9.51634C199.94 8.86285 199.355 8.40423 198.701 8.48448L198.666 8.45009ZM197.163 5.43484C197.404 5.40045 197.611 5.57244 197.645 5.8132C197.68 6.05396 197.507 6.26031 197.266 6.2947C197.026 6.3291 196.819 6.15714 196.785 5.91638C196.75 5.67562 196.922 5.46924 197.163 5.43484Z" fill="#4B4B4B"/>
<path d="M126.621 16.2825V5.49414H129.845V7.08773C130.396 6.11322 131.819 5.49414 133.024 5.49414C134.596 5.49414 135.732 6.13618 136.282 7.22534C137.143 5.98714 138.21 5.49414 139.702 5.49414C141.79 5.49414 143.786 6.7094 143.786 9.71317V16.294H140.528V10.4699C140.528 9.42656 139.977 8.60109 138.772 8.60109C137.567 8.60109 136.925 9.50682 136.925 10.4813V16.2825H133.597V10.4584C133.597 9.41508 133.047 8.58961 131.819 8.58961C130.591 8.58961 129.994 9.49534 129.994 10.4928V16.271H126.621V16.2825Z" fill="#4B4B4B"/>
<path d="M158.129 16.2825H161.502V5.49414H158.129V16.2825Z" fill="#4B4B4B"/>
<path d="M164.083 5.46875C163.051 5.46875 162.225 6.30571 162.225 7.32608C162.225 8.34644 163.062 9.18337 164.083 9.18337C165.105 9.18337 165.942 8.34644 165.942 7.32608C165.942 6.30571 165.105 5.46875 164.083 5.46875Z" fill="#4B4B4B"/>
<path d="M74.8258 5.4014C74.711 4.66765 74.1144 3.42946 72.2097 3.42946C70.9016 3.42946 70.0526 4.25492 70.0526 5.11478C70.0526 5.87146 70.523 6.42178 71.6016 6.62814L73.7128 7.02942C76.7075 7.57973 78.268 9.51727 78.268 11.7529C78.268 14.2178 76.2027 16.7172 72.4506 16.7172C68.102 16.7172 66.2317 13.8968 66.0137 11.6841L69.2379 10.9045C69.3756 12.3491 70.3509 13.6102 72.4965 13.6102C73.8734 13.6102 74.711 12.9452 74.711 11.9707C74.711 11.1682 74.0685 10.595 73.0244 10.4001L70.8672 9.99879C68.2052 9.48288 66.5874 7.71731 66.5874 5.38996C66.5874 2.42058 69.2035 0.333984 72.2326 0.333984C76.1683 0.333984 77.6484 2.68427 77.9812 4.5301L74.8258 5.41288V5.4014Z" fill="#4B4B4B"/>
<path d="M84.3951 5.49345H86.4145V8.18769H84.3951V12.1201C84.3951 13.0258 84.8196 13.2781 85.5539 13.2781C85.9096 13.2781 86.2424 13.2093 86.4374 13.1634V15.9608C86.2998 16.0296 85.749 16.2703 84.6819 16.2703C82.3986 16.2703 81.0102 14.9175 81.0102 12.7163V8.18769H79.6562V5.49345H80.1611C81.32 5.49345 81.2053 4.71384 81.2053 3.69347V2.11133H84.3836V5.48198L84.3951 5.49345Z" fill="#4B4B4B"/>
<path d="M150.612 5.49194C147.606 5.49194 146.218 7.37217 146.034 8.8626H149.006C149.281 8.36961 149.809 8.00274 150.589 8.00274C151.599 8.00274 152.127 8.53011 152.127 9.13774C152.127 9.49315 151.932 9.7683 151.37 9.84855L148.903 10.2269C147.17 10.4791 145.805 11.5339 145.805 13.3912C145.805 15.0536 147.136 16.5669 149.431 16.5669C150.819 16.5669 151.886 15.9822 152.437 15.088C152.437 15.7988 152.414 16.1886 152.437 16.2688H155.799V9.52754C155.799 7.38362 154.009 5.48047 150.612 5.48047V5.49194ZM152.345 12.3479C152.345 13.9644 151.381 14.4345 150.429 14.4345C149.545 14.4345 149.19 13.9071 149.19 13.3568C149.19 12.623 149.694 12.302 150.371 12.1989L152.356 11.8778V12.3364L152.345 12.3479Z" fill="#4B4B4B"/>
<path d="M120.457 10.2169L124.864 5.48198H120.492L117.164 9.15073V2.11133H113.791V16.2818H117.164V13.7596L118.254 12.5902L122.89 16.2818H124.588V13.5073L120.457 10.2169Z" fill="#4B4B4B"/>
<path d="M173.813 10.2169L178.208 5.48198H173.836L170.52 9.15073V2.11133H167.146V16.2818H170.52V13.7596L171.61 12.5902L176.234 16.2818H177.944V13.5073L173.813 10.2169Z" fill="#4B4B4B"/>
<path d="M93.8149 5.23047C90.5907 5.23047 88.0664 7.6037 88.0664 10.9514C88.0664 14.2991 90.5907 16.6953 93.8149 16.6953C97.0392 16.6953 99.5635 14.2991 99.5635 10.9514C99.5635 7.6037 97.0621 5.23047 93.8149 5.23047ZM93.8149 13.5768C92.3807 13.5768 91.2333 12.4189 91.2333 10.9973C91.2333 9.57562 92.3921 8.41768 93.8149 8.41768C95.2377 8.41768 96.3966 9.57562 96.3966 10.9973C96.3966 12.4189 95.2377 13.5768 93.8149 13.5768Z" fill="#4B4B4B"/>
<path d="M109.087 12.0406C108.685 12.9463 107.779 13.5768 106.723 13.5768C105.289 13.5768 104.141 12.4189 104.141 10.9973C104.141 9.57562 105.3 8.41768 106.723 8.41768C107.733 8.41768 108.605 8.99094 109.029 9.83934L111.875 8.99092C111.393 7.05337 109.661 5.23047 106.677 5.23047C103.499 5.23047 100.975 7.60369 100.975 10.9743C100.975 14.345 103.568 16.6953 106.781 16.6953C109.672 16.6953 111.462 14.8265 111.932 12.9348L109.075 12.052L109.087 12.0406Z" fill="#4B4B4B"/>
<path d="M4.45489 6.2615C4.06477 5.75705 3.64023 5.3902 2.7223 5.3902C1.87322 5.3902 1.31099 5.76854 1.31099 6.53668C1.31099 7.408 1.96501 7.69461 3.03211 7.88951C4.44342 8.13027 5.2925 8.63471 5.2925 9.98755C5.2925 10.9391 4.66143 12.0283 2.83704 12.0283C1.65521 12.0283 0.783179 11.627 0.232422 10.836L0.97824 10.32C1.46015 10.8818 1.87322 11.2028 2.82557 11.2028C4.01888 11.2028 4.37457 10.6525 4.37457 10.0334C4.37457 9.34554 4.03035 8.88694 2.65346 8.66911C1.27657 8.46274 0.393059 7.7978 0.393059 6.53668C0.393059 5.49338 1.08151 4.57617 2.75673 4.57617C3.91561 4.57617 4.64995 4.96598 5.16629 5.76852L4.45489 6.27297V6.2615Z" fill="#4B4B4B"/>
<path d="M10.6744 11.9376H9.82529V11.4217C9.56139 11.8229 9.19422 12.0293 8.41398 12.0293C7.27804 12.0293 6.48633 11.4331 6.48633 9.95417V6.65234H7.33541V9.94273C7.33541 11.009 7.92059 11.2383 8.54019 11.2383C9.33191 11.2383 9.82529 10.6765 9.82529 9.95417V6.65234H10.6744V11.9376Z" fill="#4B4B4B"/>
<path d="M14.3341 6.57202C15.6422 6.57202 16.4454 7.43188 16.4454 8.93377V9.6331C16.4454 11.0089 15.7684 12.0178 14.3341 12.0178C13.6342 12.0178 13.1867 11.8 12.8999 11.3987V13.9324H12.0508V6.64081H12.8999V7.16818C13.1867 6.77838 13.6457 6.56055 14.3341 6.56055V6.57202ZM15.6078 9.6331V8.93377C15.6078 7.92487 15.1258 7.3287 14.2538 7.3287C13.3818 7.3287 12.8999 7.9134 12.8999 8.86498V9.6331C12.8999 10.5388 13.2785 11.2611 14.2538 11.2611C15.1488 11.2611 15.6078 10.5274 15.6078 9.6331Z" fill="#4B4B4B"/>
<path d="M19.8419 6.57202C21.15 6.57202 21.9532 7.43188 21.9532 8.93377V9.6331C21.9532 11.0089 21.2762 12.0178 19.8419 12.0178C19.142 12.0178 18.6945 11.8 18.4077 11.3987V13.9324H17.5586V6.64081H18.4077V7.16818C18.6945 6.77838 19.1535 6.56055 19.8419 6.56055V6.57202ZM21.1156 9.6331V8.93377C21.1156 7.92487 20.6337 7.3287 19.7616 7.3287C18.8896 7.3287 18.4077 7.9134 18.4077 8.86498V9.6331C18.4077 10.5388 18.7863 11.2611 19.7616 11.2611C20.6566 11.2611 21.1156 10.5274 21.1156 9.6331Z" fill="#4B4B4B"/>
<path d="M27.1971 9.63139C27.1971 11.0072 26.5201 12.0161 24.994 12.0161C23.5827 12.0161 22.791 11.0874 22.791 9.63139V8.93206C22.791 7.43017 23.6057 6.57031 24.994 6.57031C26.3824 6.57031 27.1971 7.43017 27.1971 8.93206V9.63139ZM26.3595 9.63139V8.93206C26.3595 7.92315 25.8775 7.32699 25.0055 7.32699C24.1335 7.32699 23.6516 7.94608 23.6516 8.93206V9.63139C23.6516 10.5371 24.0302 11.2594 25.0055 11.2594C25.9005 11.2594 26.3595 10.5256 26.3595 9.63139Z" fill="#4B4B4B"/>
<path d="M31.1771 7.78704C30.9591 7.4775 30.6837 7.3399 30.2936 7.3399C29.6511 7.3399 29.1577 7.82142 29.1577 8.62395V11.9258H28.3086V6.64057H29.1577V7.15646C29.3757 6.78959 29.7429 6.54883 30.3854 6.54883C31.1083 6.54883 31.5558 6.78959 31.9 7.27112L31.1771 7.77557V7.78704Z" fill="#4B4B4B"/>
<path d="M32.0039 6.6521H32.6809V5.49414H33.53V6.6521H34.7462V7.40874H33.53V10.0915C33.53 10.8253 33.6103 11.1234 34.3217 11.1234H34.7462V11.9259H34.2873C33.0366 11.9259 32.6809 11.3985 32.6809 10.2979V7.3973H32.0039V6.64062V6.6521Z" fill="#4B4B4B"/>
<path d="M39.6585 11.1333C39.2913 11.7753 38.7291 12.0161 37.8112 12.0161C36.3999 12.0161 35.5508 11.0989 35.5508 9.63139V8.93206C35.5508 7.43017 36.2622 6.57031 37.6391 6.57031C39.016 6.57031 39.7388 7.43017 39.7388 8.93206V9.48234H36.3999V9.63139C36.3999 10.5371 36.8359 11.2594 37.7538 11.2594C38.4423 11.2594 38.7865 11.0645 39.016 10.6633L39.67 11.1333H39.6585ZM36.3884 8.73714H38.8783C38.8324 7.85435 38.4423 7.31552 37.6391 7.31552C36.8359 7.31552 36.4458 7.85435 36.3884 8.73714Z" fill="#4B4B4B"/>
<path d="M44.2486 4.64453H45.0977V11.9361H44.2486V11.4661C43.9618 11.8329 43.5028 12.0164 42.8144 12.0164C41.3801 12.0164 40.7031 11.0075 40.7031 9.63169V8.93235C40.7031 7.419 41.5063 6.57061 42.8144 6.57061C43.5143 6.57061 43.9618 6.78844 44.2486 7.17824V4.64453ZM44.2486 9.70047V8.93235C44.2486 7.93491 43.7667 7.32729 42.8947 7.32729C42.0227 7.32729 41.5407 7.93491 41.5407 8.93235V9.63169C41.5407 10.5259 41.9997 11.2597 42.8947 11.2597C43.7897 11.2597 44.2486 10.5833 44.2486 9.71195V9.70047Z" fill="#4B4B4B"/>
<path d="M49.9624 7.17824C50.2492 6.78844 50.7082 6.57061 51.3966 6.57061C52.7047 6.57061 53.5079 7.43046 53.5079 8.93235V9.63169C53.5079 11.0075 52.8309 12.0164 51.3966 12.0164C50.6852 12.0164 50.2492 11.8329 49.9624 11.4661V11.9361H49.1133V4.64453H49.9624V7.17824ZM52.6703 9.63169V8.93235C52.6703 7.92345 52.1883 7.32729 51.3163 7.32729C50.4443 7.32729 49.9624 7.91199 49.9624 8.86356V9.63169C49.9624 10.5374 50.341 11.2597 51.3163 11.2597C52.2113 11.2597 52.6703 10.5259 52.6703 9.63169Z" fill="#4B4B4B"/>
<path d="M56.0534 11.9835L53.9766 6.65234H54.883L56.455 10.7567L57.8433 6.65234H58.7383L56.8795 12.1096C56.4435 13.3822 56.1566 13.9439 54.6765 13.9439V13.1185C55.3764 13.1185 55.6977 13.0038 56.019 12.0637L56.0419 11.9949L56.0534 11.9835Z" fill="#4B4B4B"/>
</svg>
