<svg width="41" height="40" viewBox="0 0 41 40" fill="none" xmlns="http://www.w3.org/2000/svg">
<g clip-path="url(#clip0_3607_5078)">
<path d="M40.5586 20C40.5586 8.9544 31.6042 0 20.5586 0C9.51299 0 0.558594 8.9544 0.558594 20C0.558594 29.3792 7.01619 37.2496 15.7274 39.4112V26.112H11.6034V20H15.7274V17.3664C15.7274 10.5592 18.8082 7.404 25.4914 7.404C26.7586 7.404 28.945 7.6528 29.8394 7.9008V13.4408C29.3674 13.3912 28.5474 13.3664 27.529 13.3664C24.2498 13.3664 22.9826 14.6088 22.9826 17.8384V20H29.5154L28.393 26.112H22.9826V39.8536C32.8858 38.6576 40.5594 30.2256 40.5594 20H40.5586Z" fill="#0866FF" />
<path d="M28.3931 26.1123L29.5155 20.0003H22.9827V17.8387C22.9827 14.6091 24.2499 13.3667 27.5291 13.3667C28.5475 13.3667 29.3675 13.3915 29.8395 13.4411V7.9011C28.9451 7.6523 26.7587 7.4043 25.4915 7.4043C18.8083 7.4043 15.7275 10.5595 15.7275 17.3667V20.0003H11.6035V26.1123H15.7275V39.4115C17.2747 39.7955 18.8931 40.0003 20.5587 40.0003C21.3787 40.0003 22.1875 39.9499 22.9819 39.8539V26.1123H28.3923H28.3931Z" fill="white" />
</g>
<defs>
<clipPath id="clip0_3607_5078">
<rect width="40" height="40" fill="white" transform="translate(0.558594)"/>
</clipPath>
</defs>
</svg>
