<svg width="24" height="24" viewBox="0 0 24 24" xmlns="http://www.w3.org/2000/svg">
<path fill-rule="evenodd" clip-rule="evenodd" d="M8.02742 19.2531C8.02742 19.3469 7.91613 19.4219 7.77581 19.4219C7.61613 19.4359 7.50484 19.3609 7.50484 19.2531C7.50484 19.1594 7.61613 19.0844 7.75645 19.0844C7.90161 19.0703 8.02742 19.1453 8.02742 19.2531ZM6.52258 19.0422C6.48871 19.1359 6.58548 19.2437 6.73065 19.2719C6.85645 19.3187 7.00161 19.2719 7.03065 19.1781C7.05968 19.0844 6.96774 18.9766 6.82258 18.9344C6.69677 18.9016 6.55645 18.9484 6.52258 19.0422ZM8.66129 18.9625C8.52097 18.9953 8.42419 19.0844 8.43871 19.1922C8.45323 19.2859 8.57903 19.3469 8.72419 19.3141C8.86452 19.2813 8.96129 19.1922 8.94677 19.0984C8.93226 19.0094 8.80161 18.9484 8.66129 18.9625ZM11.8452 1C5.13387 1 0 5.93594 0 12.4375C0 17.6359 3.37742 22.0844 8.20161 23.65C8.82097 23.7578 9.03871 23.3875 9.03871 23.0828C9.03871 22.7922 9.02419 21.1891 9.02419 20.2047C9.02419 20.2047 5.6371 20.9078 4.92581 18.8078C4.92581 18.8078 4.37419 17.4437 3.58065 17.0922C3.58065 17.0922 2.47258 16.3562 3.65806 16.3703C3.65806 16.3703 4.8629 16.4641 5.52581 17.5797C6.58548 19.3891 8.36129 18.8688 9.05323 18.5594C9.16452 17.8094 9.47903 17.2891 9.82742 16.9797C7.12258 16.6891 4.39355 16.3094 4.39355 11.8C4.39355 10.5109 4.76129 9.86406 5.53548 9.03906C5.40968 8.73438 4.99839 7.47812 5.66129 5.85625C6.67258 5.55156 9 7.12188 9 7.12188C9.96774 6.85938 11.0081 6.72344 12.0387 6.72344C13.0694 6.72344 14.1097 6.85938 15.0774 7.12188C15.0774 7.12188 17.4048 5.54687 18.4161 5.85625C19.079 7.48281 18.6677 8.73438 18.5419 9.03906C19.3161 9.86875 19.7903 10.5156 19.7903 11.8C19.7903 16.3234 16.9403 16.6844 14.2355 16.9797C14.6806 17.35 15.0581 18.0531 15.0581 19.1547C15.0581 20.7344 15.0435 22.6891 15.0435 23.0734C15.0435 23.3781 15.2661 23.7484 15.8806 23.6406C20.7194 22.0844 24 17.6359 24 12.4375C24 5.93594 18.5565 1 11.8452 1ZM4.70323 17.1672C4.64032 17.2141 4.65484 17.3219 4.7371 17.4109C4.81452 17.4859 4.92581 17.5188 4.98871 17.4578C5.05161 17.4109 5.0371 17.3031 4.95484 17.2141C4.87742 17.1391 4.76613 17.1062 4.70323 17.1672ZM4.18065 16.7875C4.14677 16.8484 4.19516 16.9234 4.29194 16.9703C4.36935 17.0172 4.46613 17.0031 4.5 16.9375C4.53387 16.8766 4.48548 16.8016 4.38871 16.7547C4.29194 16.7266 4.21452 16.7406 4.18065 16.7875ZM5.74839 18.4562C5.67097 18.5172 5.7 18.6578 5.81129 18.7469C5.92258 18.8547 6.0629 18.8688 6.12581 18.7938C6.18871 18.7328 6.15968 18.5922 6.0629 18.5031C5.95645 18.3953 5.81129 18.3812 5.74839 18.4562ZM5.19677 17.7672C5.11935 17.8141 5.11935 17.9359 5.19677 18.0438C5.27419 18.1516 5.40484 18.1984 5.46774 18.1516C5.54516 18.0906 5.54516 17.9688 5.46774 17.8609C5.4 17.7531 5.27419 17.7063 5.19677 17.7672Z" />
</svg>
