<svg width="33" height="31" viewBox="0 0 33 31" xmlns="http://www.w3.org/2000/svg">
<path d="M11.2032 24.8375C11.2032 24.9625 11.0548 25.0625 10.8677 25.0625C10.6548 25.0812 10.5065 24.9812 10.5065 24.8375C10.5065 24.7125 10.6548 24.6125 10.8419 24.6125C11.0355 24.5938 11.2032 24.6938 11.2032 24.8375ZM9.19677 24.5562C9.15161 24.6812 9.28065 24.825 9.47419 24.8625C9.64194 24.925 9.83548 24.8625 9.87419 24.7375C9.9129 24.6125 9.79032 24.4688 9.59677 24.4125C9.42903 24.3687 9.24194 24.4312 9.19677 24.5562ZM12.0484 24.45C11.8613 24.4938 11.7323 24.6125 11.7516 24.7563C11.771 24.8813 11.9387 24.9625 12.1323 24.9188C12.3194 24.875 12.4484 24.7563 12.429 24.6313C12.4097 24.5125 12.2355 24.4313 12.0484 24.45ZM16.2935 0.5C7.34516 0.5 0.5 7.08125 0.5 15.75C0.5 22.6812 5.00323 28.6125 11.4355 30.7C12.2613 30.8438 12.5516 30.35 12.5516 29.9438C12.5516 29.5562 12.5323 27.4188 12.5323 26.1063C12.5323 26.1063 8.01613 27.0437 7.06774 24.2437C7.06774 24.2437 6.33226 22.425 5.27419 21.9562C5.27419 21.9562 3.79677 20.975 5.37742 20.9937C5.37742 20.9937 6.98387 21.1188 7.86774 22.6063C9.28064 25.0188 11.6484 24.325 12.571 23.9125C12.7194 22.9125 13.1387 22.2188 13.6032 21.8062C9.99677 21.4187 6.35806 20.9125 6.35806 14.9C6.35806 13.1812 6.84839 12.3188 7.88065 11.2188C7.7129 10.8125 7.16452 9.1375 8.04839 6.975C9.39677 6.56875 12.5 8.6625 12.5 8.6625C13.7903 8.3125 15.1774 8.13125 16.5516 8.13125C17.9258 8.13125 19.3129 8.3125 20.6032 8.6625C20.6032 8.6625 23.7065 6.5625 25.0548 6.975C25.9387 9.14375 25.3903 10.8125 25.2226 11.2188C26.2548 12.325 26.8871 13.1875 26.8871 14.9C26.8871 20.9312 23.0871 21.4125 19.4806 21.8062C20.0742 22.3 20.5774 23.2375 20.5774 24.7062C20.5774 26.8125 20.5581 29.4187 20.5581 29.9312C20.5581 30.3375 20.8548 30.8312 21.6742 30.6875C28.1258 28.6125 32.5 22.6812 32.5 15.75C32.5 7.08125 25.2419 0.5 16.2935 0.5ZM6.77097 22.0562C6.6871 22.1187 6.70645 22.2625 6.81613 22.3813C6.91935 22.4813 7.06774 22.525 7.15161 22.4438C7.23548 22.3813 7.21613 22.2375 7.10645 22.1187C7.00323 22.0187 6.85484 21.975 6.77097 22.0562ZM6.07419 21.55C6.02903 21.6312 6.09355 21.7313 6.22258 21.7938C6.32581 21.8563 6.45484 21.8375 6.5 21.75C6.54516 21.6688 6.48064 21.5688 6.35161 21.5063C6.22258 21.4688 6.11935 21.4875 6.07419 21.55ZM8.16452 23.775C8.06129 23.8562 8.1 24.0438 8.24839 24.1625C8.39677 24.3062 8.58387 24.325 8.66774 24.225C8.75161 24.1438 8.7129 23.9562 8.58387 23.8375C8.44194 23.6938 8.24839 23.675 8.16452 23.775ZM7.42903 22.8563C7.32581 22.9188 7.32581 23.0813 7.42903 23.225C7.53226 23.3687 7.70645 23.4312 7.79032 23.3687C7.89355 23.2875 7.89355 23.125 7.79032 22.9813C7.7 22.8375 7.53226 22.775 7.42903 22.8563Z" />
<path d="M11.2032 24.8375C11.2032 24.9625 11.0548 25.0625 10.8677 25.0625C10.6548 25.0812 10.5065 24.9812 10.5065 24.8375C10.5065 24.7125 10.6548 24.6125 10.8419 24.6125C11.0355 24.5938 11.2032 24.6938 11.2032 24.8375ZM9.19677 24.5562C9.15161 24.6812 9.28065 24.825 9.47419 24.8625C9.64194 24.925 9.83548 24.8625 9.87419 24.7375C9.9129 24.6125 9.79032 24.4688 9.59677 24.4125C9.42903 24.3687 9.24194 24.4312 9.19677 24.5562ZM12.0484 24.45C11.8613 24.4938 11.7323 24.6125 11.7516 24.7563C11.771 24.8813 11.9387 24.9625 12.1323 24.9188C12.3194 24.875 12.4484 24.7563 12.429 24.6313C12.4097 24.5125 12.2355 24.4313 12.0484 24.45ZM16.2935 0.5C7.34516 0.5 0.5 7.08125 0.5 15.75C0.5 22.6812 5.00323 28.6125 11.4355 30.7C12.2613 30.8438 12.5516 30.35 12.5516 29.9438C12.5516 29.5562 12.5323 27.4188 12.5323 26.1063C12.5323 26.1063 8.01613 27.0437 7.06774 24.2437C7.06774 24.2437 6.33226 22.425 5.27419 21.9562C5.27419 21.9562 3.79677 20.975 5.37742 20.9937C5.37742 20.9937 6.98387 21.1188 7.86774 22.6063C9.28064 25.0188 11.6484 24.325 12.571 23.9125C12.7194 22.9125 13.1387 22.2188 13.6032 21.8062C9.99677 21.4187 6.35806 20.9125 6.35806 14.9C6.35806 13.1812 6.84839 12.3188 7.88065 11.2188C7.7129 10.8125 7.16452 9.1375 8.04839 6.975C9.39677 6.56875 12.5 8.6625 12.5 8.6625C13.7903 8.3125 15.1774 8.13125 16.5516 8.13125C17.9258 8.13125 19.3129 8.3125 20.6032 8.6625C20.6032 8.6625 23.7065 6.5625 25.0548 6.975C25.9387 9.14375 25.3903 10.8125 25.2226 11.2188C26.2548 12.325 26.8871 13.1875 26.8871 14.9C26.8871 20.9312 23.0871 21.4125 19.4806 21.8062C20.0742 22.3 20.5774 23.2375 20.5774 24.7062C20.5774 26.8125 20.5581 29.4187 20.5581 29.9312C20.5581 30.3375 20.8548 30.8312 21.6742 30.6875C28.1258 28.6125 32.5 22.6812 32.5 15.75C32.5 7.08125 25.2419 0.5 16.2935 0.5ZM6.77097 22.0562C6.6871 22.1187 6.70645 22.2625 6.81613 22.3813C6.91935 22.4813 7.06774 22.525 7.15161 22.4438C7.23548 22.3813 7.21613 22.2375 7.10645 22.1187C7.00323 22.0187 6.85484 21.975 6.77097 22.0562ZM6.07419 21.55C6.02903 21.6312 6.09355 21.7313 6.22258 21.7938C6.32581 21.8563 6.45484 21.8375 6.5 21.75C6.54516 21.6688 6.48064 21.5688 6.35161 21.5063C6.22258 21.4688 6.11935 21.4875 6.07419 21.55ZM8.16452 23.775C8.06129 23.8562 8.1 24.0438 8.24839 24.1625C8.39677 24.3062 8.58387 24.325 8.66774 24.225C8.75161 24.1438 8.7129 23.9562 8.58387 23.8375C8.44194 23.6938 8.24839 23.675 8.16452 23.775ZM7.42903 22.8563C7.32581 22.9188 7.32581 23.0813 7.42903 23.225C7.53226 23.3687 7.70645 23.4312 7.79032 23.3687C7.89355 23.2875 7.89355 23.125 7.79032 22.9813C7.7 22.8375 7.53226 22.775 7.42903 22.8563Z" />
</svg>
