<?xml version="1.0" encoding="UTF-8"?>
<svg xmlns="http://www.w3.org/2000/svg" xmlns:xlink="http://www.w3.org/1999/xlink" width="24px" height="24px" viewBox="0 0 24 24" version="1.1">
<g id="surface1">
<path d="M 4.625 2.625 L 4 3.226562 L 4 20.773438 L 4.625 21.375 L 5.226562 22 L 18.773438 22 L 19.375 21.375 L 20 20.773438 L 20 7.875 L 14.125 2 L 9.675781 2 C 5.273438 2 5.226562 2 4.625 2.625 Z M 16 6.375 L 18.625 9 L 13 9 L 13 6.375 C 13 4.925781 13.074219 3.75 13.199219 3.75 C 13.300781 3.75 14.550781 4.925781 16 6.375 Z M 16 12 L 16 13 L 8 13 L 8 11 L 16 11 Z M 16 15 L 16 16 L 8 16 L 8 14 L 16 14 Z M 13 18 L 13 19 L 8 19 L 8 17 L 13 17 Z M 13 18 "/>
</g>
</svg>
