<svg width="26" height="20" viewBox="0 0 26 20"  xmlns="http://www.w3.org/2000/svg">
<path d="M25.2967 3.78183C25.0021 2.67058 24.1315 1.79558 23.0275 1.49808C21.0252 0.958496 13 0.958496 13 0.958496C13 0.958496 4.97334 0.958496 2.97251 1.49808C1.86855 1.79558 0.997922 2.67058 0.703339 3.78183C0.166672 5.79579 0.166672 10.0002 0.166672 10.0002C0.166672 10.0002 0.166672 14.2031 0.703339 16.2185C0.997922 17.3297 1.86855 18.2048 2.97251 18.5022C4.9748 19.0418 13 19.0418 13 19.0418C13 19.0418 21.0267 19.0418 23.0275 18.5022C24.1315 18.2048 25.0021 17.3297 25.2967 16.2185C25.8333 14.2045 25.8333 10.0002 25.8333 10.0002C25.8333 10.0002 25.8333 5.79725 25.2967 3.78183ZM10.375 13.8166V6.18371L17.0833 10.0002L10.375 13.8166Z" />
</svg>
