<svg width="120" height="36" viewBox="0 0 120 36" fill="none" xmlns="http://www.w3.org/2000/svg">
<g clip-path="url(#clip0_621_40)">
<path d="M27.1114 17.5479L37.9579 0L43.3795 8.77562L37.9579 17.5479L32.533 26.3202H21.6898L16.2681 17.5479L10.8432 26.3202L5.42161 35.0925L0 26.3202L10.8432 8.77562H21.6898L27.1114 17.5479ZM82.2715 12.6183C83.0693 12.9573 83.7573 13.426 84.3191 14.0177C84.8809 14.6094 85.313 15.3042 85.6089 16.082C85.9014 16.8598 86.051 17.7075 86.051 18.595C86.051 18.6816 86.0494 18.7665 86.0467 18.8492L86.0397 19.0115L86.0301 19.1669L86.0185 19.3141L86.0053 19.4521L85.9913 19.5799L85.9769 19.6963L85.9494 19.8907L85.9147 20.1008L85.8582 20.3801H75.9623C76.0321 20.8055 76.1618 21.1945 76.3446 21.5402C76.5839 21.9856 76.8898 22.3712 77.2554 22.6803C77.6211 22.9928 78.0432 23.2288 78.5119 23.385C78.9873 23.5479 79.4992 23.6277 80.0344 23.6277C80.7623 23.6277 81.4238 23.4848 81.9989 23.2055C82.5806 22.923 83.0892 22.5407 83.5114 22.072L83.774 21.7795L85.785 24.0964L85.5623 24.3258C84.7812 25.1235 83.9235 25.7186 83.0161 26.0909C82.1019 26.4632 81.0814 26.6526 79.9812 26.6526C78.8809 26.6526 77.8604 26.4632 76.9496 26.0909C76.0421 25.7186 75.251 25.2 74.6028 24.5518C73.9546 23.9036 73.446 23.1291 73.0903 22.2548C72.7346 21.3806 72.5551 20.4233 72.5551 19.4061C72.5551 18.3922 72.7247 17.4316 73.0604 16.5507C73.3961 15.6665 73.8814 14.8853 74.503 14.2271C75.1247 13.569 75.8759 13.0471 76.7335 12.6715C77.5945 12.2958 78.5551 12.1064 79.5889 12.1064C80.5729 12.1064 81.4737 12.2792 82.2715 12.6183ZM79.6155 15.0781C79.1501 15.0781 78.708 15.1479 78.3025 15.2809C77.9003 15.4139 77.5413 15.61 77.2388 15.8593C76.933 16.1086 76.6704 16.4211 76.4543 16.7834C76.3047 17.036 76.185 17.3152 76.092 17.6177L82.8189 17.6174L82.7919 17.4923C82.731 17.2365 82.6419 16.9918 82.5307 16.7668C82.3512 16.4078 82.1186 16.1019 81.8393 15.8526C81.5601 15.6066 81.231 15.4139 80.8587 15.2809C80.4798 15.1479 80.0609 15.0781 79.6155 15.0781ZM66.226 26.3402L57.5335 14.5263V26.3402H54.2227V8.79224H57.0449L65.7407 20.5828V8.79224H69.0249V26.3402H66.226ZM101.631 26.3402L98.5895 17.3817L95.5446 26.3402H92.5862L88.0488 12.4222H91.426L94.1817 21.3873L97.1069 12.4222H100.069L102.994 21.3873L105.75 12.4222H109.127L104.589 26.3402H101.631ZM115.891 26.3435C115.333 26.1374 114.854 25.8316 114.472 25.436C114.093 25.0471 113.794 24.5618 113.584 23.9934C113.378 23.4349 113.275 22.7967 113.275 22.0986V15.2377H111.291V12.4255H113.275V8.79557H116.506V12.4255H119.904V15.2377H116.506V21.7862C116.506 22.4377 116.649 22.9064 116.925 23.1856C117.204 23.4648 117.666 23.6078 118.298 23.6078C118.418 23.6078 118.621 23.5878 118.9 23.5479C119.039 23.528 119.206 23.4715 119.405 23.3817L119.9 23.1557V26.2471L119.681 26.3335C119.458 26.4233 119.255 26.4864 119.039 26.533C118.657 26.6094 118.222 26.6526 117.75 26.6526C117.065 26.6526 116.44 26.5496 115.891 26.3435Z" fill="#333333"/>
</g>
<defs>
<clipPath id="clip0_621_40">
<rect width="120" height="35.2355" fill="white"/>
</clipPath>
</defs>
</svg>
